<mxfile host="app.diagrams.net" agent="Mozilla/5.0 (Windows NT 10.0; Win64; x64) AppleWebKit/537.36 (KHTML, like Gecko) Chrome/137.0.0.0 Safari/537.36" version="27.2.0">
  <diagram name="Page-1" id="gvb4OYT6VU7XfVO6aoxa">
    <mxGraphModel grid="0" page="1" gridSize="10" guides="1" tooltips="1" connect="1" arrows="1" fold="1" pageScale="1" pageWidth="850" pageHeight="1100" background="none" math="0" shadow="0">
      <root>
        <mxCell id="0" />
        <mxCell id="1" parent="0" />
        <mxCell id="l3KvwHW-x56ygeoCCVu8-3" value="Class : Food" style="swimlane;fontStyle=1;align=center;verticalAlign=top;childLayout=stackLayout;horizontal=1;startSize=26;horizontalStack=0;resizeParent=1;resizeParentMax=0;resizeLast=0;collapsible=1;marginBottom=0;whiteSpace=wrap;html=1;" vertex="1" parent="1">
          <mxGeometry x="353" y="-177.5" width="190" height="133" as="geometry" />
        </mxCell>
        <mxCell id="l3KvwHW-x56ygeoCCVu8-4" value="String Name,&lt;div&gt;Double Price&lt;/div&gt;&lt;div&gt;&lt;p style=&quot;margin:0in;font-family:Calibri;font-size:11.0pt&quot;&gt;Taste (spice,medium,sweet)&lt;/p&gt;&lt;p style=&quot;margin:0in;font-family:Calibri;font-size:11.0pt&quot;&gt;String Ingrediants&lt;/p&gt;&lt;p style=&quot;margin:0in;font-family:Calibri;font-size:11.0pt&quot;&gt;Double Rating&lt;/p&gt;&lt;/div&gt;" style="text;strokeColor=none;fillColor=none;align=left;verticalAlign=top;spacingLeft=4;spacingRight=4;overflow=hidden;rotatable=0;points=[[0,0.5],[1,0.5]];portConstraint=eastwest;whiteSpace=wrap;html=1;" vertex="1" parent="l3KvwHW-x56ygeoCCVu8-3">
          <mxGeometry y="26" width="190" height="107" as="geometry" />
        </mxCell>
        <mxCell id="l3KvwHW-x56ygeoCCVu8-8" value="Enum : Taste" style="swimlane;fontStyle=0;childLayout=stackLayout;horizontal=1;startSize=26;fillColor=none;horizontalStack=0;resizeParent=1;resizeParentMax=0;resizeLast=0;collapsible=1;marginBottom=0;whiteSpace=wrap;html=1;" vertex="1" parent="1">
          <mxGeometry x="758" y="-167" width="140" height="104" as="geometry" />
        </mxCell>
        <mxCell id="l3KvwHW-x56ygeoCCVu8-9" value="Spicy" style="text;strokeColor=none;fillColor=none;align=left;verticalAlign=top;spacingLeft=4;spacingRight=4;overflow=hidden;rotatable=0;points=[[0,0.5],[1,0.5]];portConstraint=eastwest;whiteSpace=wrap;html=1;" vertex="1" parent="l3KvwHW-x56ygeoCCVu8-8">
          <mxGeometry y="26" width="140" height="26" as="geometry" />
        </mxCell>
        <mxCell id="l3KvwHW-x56ygeoCCVu8-10" value="Medium" style="text;strokeColor=none;fillColor=none;align=left;verticalAlign=top;spacingLeft=4;spacingRight=4;overflow=hidden;rotatable=0;points=[[0,0.5],[1,0.5]];portConstraint=eastwest;whiteSpace=wrap;html=1;" vertex="1" parent="l3KvwHW-x56ygeoCCVu8-8">
          <mxGeometry y="52" width="140" height="26" as="geometry" />
        </mxCell>
        <mxCell id="l3KvwHW-x56ygeoCCVu8-11" value="Sweet" style="text;strokeColor=none;fillColor=none;align=left;verticalAlign=top;spacingLeft=4;spacingRight=4;overflow=hidden;rotatable=0;points=[[0,0.5],[1,0.5]];portConstraint=eastwest;whiteSpace=wrap;html=1;" vertex="1" parent="l3KvwHW-x56ygeoCCVu8-8">
          <mxGeometry y="78" width="140" height="26" as="geometry" />
        </mxCell>
        <mxCell id="l3KvwHW-x56ygeoCCVu8-13" value="Class : Food Type" style="swimlane;fontStyle=1;align=center;verticalAlign=top;childLayout=stackLayout;horizontal=1;startSize=26;horizontalStack=0;resizeParent=1;resizeParentMax=0;resizeLast=0;collapsible=1;marginBottom=0;whiteSpace=wrap;html=1;" vertex="1" parent="1">
          <mxGeometry x="566" y="-215" width="160" height="164" as="geometry" />
        </mxCell>
        <mxCell id="l3KvwHW-x56ygeoCCVu8-14" value="List&amp;lt;Food&amp;gt;Items" style="text;strokeColor=none;fillColor=none;align=left;verticalAlign=top;spacingLeft=4;spacingRight=4;overflow=hidden;rotatable=0;points=[[0,0.5],[1,0.5]];portConstraint=eastwest;whiteSpace=wrap;html=1;" vertex="1" parent="l3KvwHW-x56ygeoCCVu8-13">
          <mxGeometry y="26" width="160" height="26" as="geometry" />
        </mxCell>
        <mxCell id="l3KvwHW-x56ygeoCCVu8-15" value="" style="line;strokeWidth=1;fillColor=none;align=left;verticalAlign=middle;spacingTop=-1;spacingLeft=3;spacingRight=3;rotatable=0;labelPosition=right;points=[];portConstraint=eastwest;strokeColor=inherit;" vertex="1" parent="l3KvwHW-x56ygeoCCVu8-13">
          <mxGeometry y="52" width="160" height="8" as="geometry" />
        </mxCell>
        <mxCell id="l3KvwHW-x56ygeoCCVu8-16" value="addFoodItem (admin)" style="text;strokeColor=none;fillColor=none;align=left;verticalAlign=top;spacingLeft=4;spacingRight=4;overflow=hidden;rotatable=0;points=[[0,0.5],[1,0.5]];portConstraint=eastwest;whiteSpace=wrap;html=1;" vertex="1" parent="l3KvwHW-x56ygeoCCVu8-13">
          <mxGeometry y="60" width="160" height="26" as="geometry" />
        </mxCell>
        <mxCell id="8DvpT-u5KKUCpt1AwwPD-8" value="delete FoodItem (admin)" style="text;strokeColor=none;fillColor=none;align=left;verticalAlign=top;spacingLeft=4;spacingRight=4;overflow=hidden;rotatable=0;points=[[0,0.5],[1,0.5]];portConstraint=eastwest;whiteSpace=wrap;html=1;" vertex="1" parent="l3KvwHW-x56ygeoCCVu8-13">
          <mxGeometry y="86" width="160" height="26" as="geometry" />
        </mxCell>
        <mxCell id="8DvpT-u5KKUCpt1AwwPD-9" value="Display FoodItem" style="text;strokeColor=none;fillColor=none;align=left;verticalAlign=top;spacingLeft=4;spacingRight=4;overflow=hidden;rotatable=0;points=[[0,0.5],[1,0.5]];portConstraint=eastwest;whiteSpace=wrap;html=1;" vertex="1" parent="l3KvwHW-x56ygeoCCVu8-13">
          <mxGeometry y="112" width="160" height="26" as="geometry" />
        </mxCell>
        <mxCell id="8DvpT-u5KKUCpt1AwwPD-27" value="DiscountPercent" style="text;strokeColor=none;fillColor=none;align=left;verticalAlign=top;spacingLeft=4;spacingRight=4;overflow=hidden;rotatable=0;points=[[0,0.5],[1,0.5]];portConstraint=eastwest;whiteSpace=wrap;html=1;" vertex="1" parent="l3KvwHW-x56ygeoCCVu8-13">
          <mxGeometry y="138" width="160" height="26" as="geometry" />
        </mxCell>
        <mxCell id="q3lZP3yISvS3xZMHZqK9-1" value="Class : OrderItem" style="swimlane;fontStyle=1;align=center;verticalAlign=top;childLayout=stackLayout;horizontal=1;startSize=26;horizontalStack=0;resizeParent=1;resizeParentMax=0;resizeLast=0;collapsible=1;marginBottom=0;whiteSpace=wrap;html=1;" vertex="1" parent="1">
          <mxGeometry x="1115" y="175" width="181" height="78" as="geometry" />
        </mxCell>
        <mxCell id="q3lZP3yISvS3xZMHZqK9-2" value="Food&amp;nbsp; foodItem" style="text;strokeColor=none;fillColor=none;align=left;verticalAlign=top;spacingLeft=4;spacingRight=4;overflow=hidden;rotatable=0;points=[[0,0.5],[1,0.5]];portConstraint=eastwest;whiteSpace=wrap;html=1;" vertex="1" parent="q3lZP3yISvS3xZMHZqK9-1">
          <mxGeometry y="26" width="181" height="26" as="geometry" />
        </mxCell>
        <mxCell id="q3lZP3yISvS3xZMHZqK9-10" value="Int quantiy" style="text;strokeColor=none;fillColor=none;align=left;verticalAlign=top;spacingLeft=4;spacingRight=4;overflow=hidden;rotatable=0;points=[[0,0.5],[1,0.5]];portConstraint=eastwest;whiteSpace=wrap;html=1;" vertex="1" parent="q3lZP3yISvS3xZMHZqK9-1">
          <mxGeometry y="52" width="181" height="26" as="geometry" />
        </mxCell>
        <mxCell id="q3lZP3yISvS3xZMHZqK9-11" value="Class : Order" style="swimlane;fontStyle=1;align=center;verticalAlign=top;childLayout=stackLayout;horizontal=1;startSize=26;horizontalStack=0;resizeParent=1;resizeParentMax=0;resizeLast=0;collapsible=1;marginBottom=0;whiteSpace=wrap;html=1;" vertex="1" parent="1">
          <mxGeometry x="1100" y="310" width="181" height="208" as="geometry" />
        </mxCell>
        <mxCell id="q3lZP3yISvS3xZMHZqK9-12" value="List&amp;lt;OrderItem&amp;gt; items" style="text;strokeColor=none;fillColor=none;align=left;verticalAlign=top;spacingLeft=4;spacingRight=4;overflow=hidden;rotatable=0;points=[[0,0.5],[1,0.5]];portConstraint=eastwest;whiteSpace=wrap;html=1;" vertex="1" parent="q3lZP3yISvS3xZMHZqK9-11">
          <mxGeometry y="26" width="181" height="26" as="geometry" />
        </mxCell>
        <mxCell id="q3lZP3yISvS3xZMHZqK9-13" value="Double total" style="text;strokeColor=none;fillColor=none;align=left;verticalAlign=top;spacingLeft=4;spacingRight=4;overflow=hidden;rotatable=0;points=[[0,0.5],[1,0.5]];portConstraint=eastwest;whiteSpace=wrap;html=1;" vertex="1" parent="q3lZP3yISvS3xZMHZqK9-11">
          <mxGeometry y="52" width="181" height="26" as="geometry" />
        </mxCell>
        <mxCell id="q3lZP3yISvS3xZMHZqK9-15" value="Double Discount" style="text;strokeColor=none;fillColor=none;align=left;verticalAlign=top;spacingLeft=4;spacingRight=4;overflow=hidden;rotatable=0;points=[[0,0.5],[1,0.5]];portConstraint=eastwest;whiteSpace=wrap;html=1;" vertex="1" parent="q3lZP3yISvS3xZMHZqK9-11">
          <mxGeometry y="78" width="181" height="26" as="geometry" />
        </mxCell>
        <mxCell id="q3lZP3yISvS3xZMHZqK9-16" value="Double finalAmount" style="text;strokeColor=none;fillColor=none;align=left;verticalAlign=top;spacingLeft=4;spacingRight=4;overflow=hidden;rotatable=0;points=[[0,0.5],[1,0.5]];portConstraint=eastwest;whiteSpace=wrap;html=1;" vertex="1" parent="q3lZP3yISvS3xZMHZqK9-11">
          <mxGeometry y="104" width="181" height="26" as="geometry" />
        </mxCell>
        <mxCell id="q3lZP3yISvS3xZMHZqK9-17" value="Payment payment" style="text;strokeColor=none;fillColor=none;align=left;verticalAlign=top;spacingLeft=4;spacingRight=4;overflow=hidden;rotatable=0;points=[[0,0.5],[1,0.5]];portConstraint=eastwest;whiteSpace=wrap;html=1;" vertex="1" parent="q3lZP3yISvS3xZMHZqK9-11">
          <mxGeometry y="130" width="181" height="26" as="geometry" />
        </mxCell>
        <mxCell id="q3lZP3yISvS3xZMHZqK9-18" value="DeliveryPartner deliveryPartner" style="text;strokeColor=none;fillColor=none;align=left;verticalAlign=top;spacingLeft=4;spacingRight=4;overflow=hidden;rotatable=0;points=[[0,0.5],[1,0.5]];portConstraint=eastwest;whiteSpace=wrap;html=1;" vertex="1" parent="q3lZP3yISvS3xZMHZqK9-11">
          <mxGeometry y="156" width="181" height="26" as="geometry" />
        </mxCell>
        <mxCell id="8DvpT-u5KKUCpt1AwwPD-18" value="GetOrder" style="text;strokeColor=none;fillColor=none;align=left;verticalAlign=top;spacingLeft=4;spacingRight=4;overflow=hidden;rotatable=0;points=[[0,0.5],[1,0.5]];portConstraint=eastwest;whiteSpace=wrap;html=1;" vertex="1" parent="q3lZP3yISvS3xZMHZqK9-11">
          <mxGeometry y="182" width="181" height="26" as="geometry" />
        </mxCell>
        <mxCell id="q3lZP3yISvS3xZMHZqK9-19" value="Interface : Payment" style="swimlane;fontStyle=1;align=center;verticalAlign=top;childLayout=stackLayout;horizontal=1;startSize=26;horizontalStack=0;resizeParent=1;resizeParentMax=0;resizeLast=0;collapsible=1;marginBottom=0;whiteSpace=wrap;html=1;" vertex="1" parent="1">
          <mxGeometry x="567" y="707" width="160" height="86" as="geometry" />
        </mxCell>
        <mxCell id="q3lZP3yISvS3xZMHZqK9-20" value="void pay(Double amount);" style="text;strokeColor=none;fillColor=none;align=left;verticalAlign=top;spacingLeft=4;spacingRight=4;overflow=hidden;rotatable=0;points=[[0,0.5],[1,0.5]];portConstraint=eastwest;whiteSpace=wrap;html=1;" vertex="1" parent="q3lZP3yISvS3xZMHZqK9-19">
          <mxGeometry y="26" width="160" height="26" as="geometry" />
        </mxCell>
        <mxCell id="q3lZP3yISvS3xZMHZqK9-21" value="" style="line;strokeWidth=1;fillColor=none;align=left;verticalAlign=middle;spacingTop=-1;spacingLeft=3;spacingRight=3;rotatable=0;labelPosition=right;points=[];portConstraint=eastwest;strokeColor=inherit;" vertex="1" parent="q3lZP3yISvS3xZMHZqK9-19">
          <mxGeometry y="52" width="160" height="8" as="geometry" />
        </mxCell>
        <mxCell id="q3lZP3yISvS3xZMHZqK9-22" value="String getPaymentType();" style="text;strokeColor=none;fillColor=none;align=left;verticalAlign=top;spacingLeft=4;spacingRight=4;overflow=hidden;rotatable=0;points=[[0,0.5],[1,0.5]];portConstraint=eastwest;whiteSpace=wrap;html=1;" vertex="1" parent="q3lZP3yISvS3xZMHZqK9-19">
          <mxGeometry y="60" width="160" height="26" as="geometry" />
        </mxCell>
        <mxCell id="q3lZP3yISvS3xZMHZqK9-24" value="Class&amp;nbsp; : COD" style="swimlane;fontStyle=1;align=center;verticalAlign=top;childLayout=stackLayout;horizontal=1;startSize=26;horizontalStack=0;resizeParent=1;resizeParentMax=0;resizeLast=0;collapsible=1;marginBottom=0;whiteSpace=wrap;html=1;" vertex="1" parent="1">
          <mxGeometry x="567" y="824" width="160" height="86" as="geometry" />
        </mxCell>
        <mxCell id="q3lZP3yISvS3xZMHZqK9-25" value="void Pay(amount){sout}" style="text;strokeColor=none;fillColor=none;align=left;verticalAlign=top;spacingLeft=4;spacingRight=4;overflow=hidden;rotatable=0;points=[[0,0.5],[1,0.5]];portConstraint=eastwest;whiteSpace=wrap;html=1;" vertex="1" parent="q3lZP3yISvS3xZMHZqK9-24">
          <mxGeometry y="26" width="160" height="26" as="geometry" />
        </mxCell>
        <mxCell id="q3lZP3yISvS3xZMHZqK9-26" value="" style="line;strokeWidth=1;fillColor=none;align=left;verticalAlign=middle;spacingTop=-1;spacingLeft=3;spacingRight=3;rotatable=0;labelPosition=right;points=[];portConstraint=eastwest;strokeColor=inherit;" vertex="1" parent="q3lZP3yISvS3xZMHZqK9-24">
          <mxGeometry y="52" width="160" height="8" as="geometry" />
        </mxCell>
        <mxCell id="q3lZP3yISvS3xZMHZqK9-27" value="String getPaymentType(){}" style="text;strokeColor=none;fillColor=none;align=left;verticalAlign=top;spacingLeft=4;spacingRight=4;overflow=hidden;rotatable=0;points=[[0,0.5],[1,0.5]];portConstraint=eastwest;whiteSpace=wrap;html=1;" vertex="1" parent="q3lZP3yISvS3xZMHZqK9-24">
          <mxGeometry y="60" width="160" height="26" as="geometry" />
        </mxCell>
        <mxCell id="q3lZP3yISvS3xZMHZqK9-28" style="edgeStyle=orthogonalEdgeStyle;rounded=0;orthogonalLoop=1;jettySize=auto;html=1;exitX=0.5;exitY=0;exitDx=0;exitDy=0;entryX=0.496;entryY=0.91;entryDx=0;entryDy=0;entryPerimeter=0;" edge="1" parent="1" source="q3lZP3yISvS3xZMHZqK9-24" target="q3lZP3yISvS3xZMHZqK9-22">
          <mxGeometry relative="1" as="geometry" />
        </mxCell>
        <mxCell id="q3lZP3yISvS3xZMHZqK9-33" style="edgeStyle=orthogonalEdgeStyle;rounded=0;orthogonalLoop=1;jettySize=auto;html=1;entryX=1;entryY=0.5;entryDx=0;entryDy=0;" edge="1" parent="1" source="q3lZP3yISvS3xZMHZqK9-29" target="q3lZP3yISvS3xZMHZqK9-20">
          <mxGeometry relative="1" as="geometry" />
        </mxCell>
        <mxCell id="q3lZP3yISvS3xZMHZqK9-29" value="Class&amp;nbsp; : UPI" style="swimlane;fontStyle=1;align=center;verticalAlign=top;childLayout=stackLayout;horizontal=1;startSize=26;horizontalStack=0;resizeParent=1;resizeParentMax=0;resizeLast=0;collapsible=1;marginBottom=0;whiteSpace=wrap;html=1;" vertex="1" parent="1">
          <mxGeometry x="775" y="703" width="160" height="86" as="geometry" />
        </mxCell>
        <mxCell id="q3lZP3yISvS3xZMHZqK9-30" value="void Pay(amount){sout}" style="text;strokeColor=none;fillColor=none;align=left;verticalAlign=top;spacingLeft=4;spacingRight=4;overflow=hidden;rotatable=0;points=[[0,0.5],[1,0.5]];portConstraint=eastwest;whiteSpace=wrap;html=1;" vertex="1" parent="q3lZP3yISvS3xZMHZqK9-29">
          <mxGeometry y="26" width="160" height="26" as="geometry" />
        </mxCell>
        <mxCell id="q3lZP3yISvS3xZMHZqK9-31" value="" style="line;strokeWidth=1;fillColor=none;align=left;verticalAlign=middle;spacingTop=-1;spacingLeft=3;spacingRight=3;rotatable=0;labelPosition=right;points=[];portConstraint=eastwest;strokeColor=inherit;" vertex="1" parent="q3lZP3yISvS3xZMHZqK9-29">
          <mxGeometry y="52" width="160" height="8" as="geometry" />
        </mxCell>
        <mxCell id="q3lZP3yISvS3xZMHZqK9-32" value="String getPaymentType(){}" style="text;strokeColor=none;fillColor=none;align=left;verticalAlign=top;spacingLeft=4;spacingRight=4;overflow=hidden;rotatable=0;points=[[0,0.5],[1,0.5]];portConstraint=eastwest;whiteSpace=wrap;html=1;" vertex="1" parent="q3lZP3yISvS3xZMHZqK9-29">
          <mxGeometry y="60" width="160" height="26" as="geometry" />
        </mxCell>
        <mxCell id="q3lZP3yISvS3xZMHZqK9-42" style="edgeStyle=orthogonalEdgeStyle;rounded=0;orthogonalLoop=1;jettySize=auto;html=1;" edge="1" parent="1" source="q3lZP3yISvS3xZMHZqK9-34" target="q3lZP3yISvS3xZMHZqK9-19">
          <mxGeometry relative="1" as="geometry" />
        </mxCell>
        <mxCell id="q3lZP3yISvS3xZMHZqK9-34" value="Class&amp;nbsp; : CARD" style="swimlane;fontStyle=1;align=center;verticalAlign=top;childLayout=stackLayout;horizontal=1;startSize=26;horizontalStack=0;resizeParent=1;resizeParentMax=0;resizeLast=0;collapsible=1;marginBottom=0;whiteSpace=wrap;html=1;" vertex="1" parent="1">
          <mxGeometry x="327" y="707" width="160" height="86" as="geometry" />
        </mxCell>
        <mxCell id="q3lZP3yISvS3xZMHZqK9-35" value="void Pay(amount){sout}" style="text;strokeColor=none;fillColor=none;align=left;verticalAlign=top;spacingLeft=4;spacingRight=4;overflow=hidden;rotatable=0;points=[[0,0.5],[1,0.5]];portConstraint=eastwest;whiteSpace=wrap;html=1;" vertex="1" parent="q3lZP3yISvS3xZMHZqK9-34">
          <mxGeometry y="26" width="160" height="26" as="geometry" />
        </mxCell>
        <mxCell id="q3lZP3yISvS3xZMHZqK9-36" value="" style="line;strokeWidth=1;fillColor=none;align=left;verticalAlign=middle;spacingTop=-1;spacingLeft=3;spacingRight=3;rotatable=0;labelPosition=right;points=[];portConstraint=eastwest;strokeColor=inherit;" vertex="1" parent="q3lZP3yISvS3xZMHZqK9-34">
          <mxGeometry y="52" width="160" height="8" as="geometry" />
        </mxCell>
        <mxCell id="q3lZP3yISvS3xZMHZqK9-37" value="String getPaymentType(){}" style="text;strokeColor=none;fillColor=none;align=left;verticalAlign=top;spacingLeft=4;spacingRight=4;overflow=hidden;rotatable=0;points=[[0,0.5],[1,0.5]];portConstraint=eastwest;whiteSpace=wrap;html=1;" vertex="1" parent="q3lZP3yISvS3xZMHZqK9-34">
          <mxGeometry y="60" width="160" height="26" as="geometry" />
        </mxCell>
        <mxCell id="q3lZP3yISvS3xZMHZqK9-43" value="&amp;nbsp;Class : DeliveryPartner" style="swimlane;fontStyle=1;align=center;verticalAlign=top;childLayout=stackLayout;horizontal=1;startSize=26;horizontalStack=0;resizeParent=1;resizeParentMax=0;resizeLast=0;collapsible=1;marginBottom=0;whiteSpace=wrap;html=1;" vertex="1" parent="1">
          <mxGeometry x="50" y="361" width="160" height="86" as="geometry" />
        </mxCell>
        <mxCell id="q3lZP3yISvS3xZMHZqK9-44" value="String Name" style="text;strokeColor=none;fillColor=none;align=left;verticalAlign=top;spacingLeft=4;spacingRight=4;overflow=hidden;rotatable=0;points=[[0,0.5],[1,0.5]];portConstraint=eastwest;whiteSpace=wrap;html=1;" vertex="1" parent="q3lZP3yISvS3xZMHZqK9-43">
          <mxGeometry y="26" width="160" height="26" as="geometry" />
        </mxCell>
        <mxCell id="q3lZP3yISvS3xZMHZqK9-45" value="" style="line;strokeWidth=1;fillColor=none;align=left;verticalAlign=middle;spacingTop=-1;spacingLeft=3;spacingRight=3;rotatable=0;labelPosition=right;points=[];portConstraint=eastwest;strokeColor=inherit;" vertex="1" parent="q3lZP3yISvS3xZMHZqK9-43">
          <mxGeometry y="52" width="160" height="8" as="geometry" />
        </mxCell>
        <mxCell id="q3lZP3yISvS3xZMHZqK9-46" value="Double Rating" style="text;strokeColor=none;fillColor=none;align=left;verticalAlign=top;spacingLeft=4;spacingRight=4;overflow=hidden;rotatable=0;points=[[0,0.5],[1,0.5]];portConstraint=eastwest;whiteSpace=wrap;html=1;" vertex="1" parent="q3lZP3yISvS3xZMHZqK9-43">
          <mxGeometry y="60" width="160" height="26" as="geometry" />
        </mxCell>
        <mxCell id="q3lZP3yISvS3xZMHZqK9-47" value="class : DeliveryService" style="swimlane;fontStyle=1;align=center;verticalAlign=top;childLayout=stackLayout;horizontal=1;startSize=26;horizontalStack=0;resizeParent=1;resizeParentMax=0;resizeLast=0;collapsible=1;marginBottom=0;whiteSpace=wrap;html=1;" vertex="1" parent="1">
          <mxGeometry x="50" y="237" width="158" height="106" as="geometry" />
        </mxCell>
        <mxCell id="q3lZP3yISvS3xZMHZqK9-48" value="List&amp;lt;DeliveryPartner&amp;gt;" style="text;strokeColor=none;fillColor=none;align=left;verticalAlign=top;spacingLeft=4;spacingRight=4;overflow=hidden;rotatable=0;points=[[0,0.5],[1,0.5]];portConstraint=eastwest;whiteSpace=wrap;html=1;" vertex="1" parent="q3lZP3yISvS3xZMHZqK9-47">
          <mxGeometry y="26" width="158" height="26" as="geometry" />
        </mxCell>
        <mxCell id="q3lZP3yISvS3xZMHZqK9-49" value="" style="line;strokeWidth=1;fillColor=none;align=left;verticalAlign=middle;spacingTop=-1;spacingLeft=3;spacingRight=3;rotatable=0;labelPosition=right;points=[];portConstraint=eastwest;strokeColor=inherit;" vertex="1" parent="q3lZP3yISvS3xZMHZqK9-47">
          <mxGeometry y="52" width="158" height="8" as="geometry" />
        </mxCell>
        <mxCell id="q3lZP3yISvS3xZMHZqK9-50" value="DeliveryPartner assignsDeliveryPartner" style="text;strokeColor=none;fillColor=none;align=left;verticalAlign=top;spacingLeft=4;spacingRight=4;overflow=hidden;rotatable=0;points=[[0,0.5],[1,0.5]];portConstraint=eastwest;whiteSpace=wrap;html=1;" vertex="1" parent="q3lZP3yISvS3xZMHZqK9-47">
          <mxGeometry y="60" width="158" height="46" as="geometry" />
        </mxCell>
        <mxCell id="8DvpT-u5KKUCpt1AwwPD-5" style="edgeStyle=orthogonalEdgeStyle;rounded=0;orthogonalLoop=1;jettySize=auto;html=1;exitX=0;exitY=0.5;exitDx=0;exitDy=0;" edge="1" parent="1" source="8DvpT-u5KKUCpt1AwwPD-1" target="8DvpT-u5KKUCpt1AwwPD-2">
          <mxGeometry relative="1" as="geometry" />
        </mxCell>
        <mxCell id="8DvpT-u5KKUCpt1AwwPD-7" style="edgeStyle=orthogonalEdgeStyle;rounded=0;orthogonalLoop=1;jettySize=auto;html=1;exitX=0.5;exitY=0;exitDx=0;exitDy=0;entryX=0.5;entryY=1;entryDx=0;entryDy=0;" edge="1" parent="1" source="8DvpT-u5KKUCpt1AwwPD-1" target="8DvpT-u5KKUCpt1AwwPD-6">
          <mxGeometry relative="1" as="geometry" />
        </mxCell>
        <mxCell id="8DvpT-u5KKUCpt1AwwPD-17" value="" style="edgeStyle=orthogonalEdgeStyle;rounded=0;orthogonalLoop=1;jettySize=auto;html=1;" edge="1" parent="1" source="8DvpT-u5KKUCpt1AwwPD-1" target="8DvpT-u5KKUCpt1AwwPD-16">
          <mxGeometry relative="1" as="geometry" />
        </mxCell>
        <mxCell id="8DvpT-u5KKUCpt1AwwPD-24" value="" style="edgeStyle=orthogonalEdgeStyle;rounded=0;orthogonalLoop=1;jettySize=auto;html=1;" edge="1" parent="1" source="8DvpT-u5KKUCpt1AwwPD-1" target="8DvpT-u5KKUCpt1AwwPD-23">
          <mxGeometry relative="1" as="geometry" />
        </mxCell>
        <mxCell id="8DvpT-u5KKUCpt1AwwPD-1" value="&lt;font style=&quot;font-size: 24px;&quot;&gt;My App&lt;/font&gt;" style="rounded=0;whiteSpace=wrap;html=1;" vertex="1" parent="1">
          <mxGeometry x="586" y="286" width="120" height="60" as="geometry" />
        </mxCell>
        <mxCell id="8DvpT-u5KKUCpt1AwwPD-4" style="edgeStyle=orthogonalEdgeStyle;rounded=0;orthogonalLoop=1;jettySize=auto;html=1;exitX=0;exitY=0.5;exitDx=0;exitDy=0;entryX=1;entryY=0.5;entryDx=0;entryDy=0;" edge="1" parent="1" source="8DvpT-u5KKUCpt1AwwPD-2" target="q3lZP3yISvS3xZMHZqK9-44">
          <mxGeometry relative="1" as="geometry" />
        </mxCell>
        <mxCell id="8DvpT-u5KKUCpt1AwwPD-2" value="&lt;font style=&quot;font-size: 18px;&quot;&gt;Delivery&lt;/font&gt;" style="rounded=0;whiteSpace=wrap;html=1;" vertex="1" parent="1">
          <mxGeometry x="263" y="286" width="120" height="60" as="geometry" />
        </mxCell>
        <mxCell id="8DvpT-u5KKUCpt1AwwPD-3" style="edgeStyle=orthogonalEdgeStyle;rounded=0;orthogonalLoop=1;jettySize=auto;html=1;exitX=0;exitY=0.5;exitDx=0;exitDy=0;entryX=1.005;entryY=0.765;entryDx=0;entryDy=0;entryPerimeter=0;" edge="1" parent="1" source="8DvpT-u5KKUCpt1AwwPD-2" target="q3lZP3yISvS3xZMHZqK9-48">
          <mxGeometry relative="1" as="geometry" />
        </mxCell>
        <mxCell id="8DvpT-u5KKUCpt1AwwPD-11" style="edgeStyle=orthogonalEdgeStyle;rounded=0;orthogonalLoop=1;jettySize=auto;html=1;entryX=0.537;entryY=1.031;entryDx=0;entryDy=0;entryPerimeter=0;" edge="1" parent="1" source="8DvpT-u5KKUCpt1AwwPD-6" target="l3KvwHW-x56ygeoCCVu8-4">
          <mxGeometry relative="1" as="geometry">
            <mxPoint x="438.90318642893135" y="-6.258064516129025" as="targetPoint" />
            <Array as="points">
              <mxPoint x="646" y="-3" />
              <mxPoint x="455" y="-3" />
            </Array>
          </mxGeometry>
        </mxCell>
        <mxCell id="8DvpT-u5KKUCpt1AwwPD-6" value="&lt;font size=&quot;3&quot;&gt;Menu&lt;/font&gt;" style="rounded=0;whiteSpace=wrap;html=1;" vertex="1" parent="1">
          <mxGeometry x="586" y="58" width="120" height="60" as="geometry" />
        </mxCell>
        <mxCell id="8DvpT-u5KKUCpt1AwwPD-12" style="edgeStyle=orthogonalEdgeStyle;rounded=0;orthogonalLoop=1;jettySize=auto;html=1;entryX=0.552;entryY=1.036;entryDx=0;entryDy=0;entryPerimeter=0;" edge="1" parent="1" source="8DvpT-u5KKUCpt1AwwPD-6" target="l3KvwHW-x56ygeoCCVu8-11">
          <mxGeometry relative="1" as="geometry" />
        </mxCell>
        <mxCell id="8DvpT-u5KKUCpt1AwwPD-21" style="edgeStyle=orthogonalEdgeStyle;rounded=0;orthogonalLoop=1;jettySize=auto;html=1;" edge="1" parent="1" source="8DvpT-u5KKUCpt1AwwPD-16" target="q3lZP3yISvS3xZMHZqK9-2">
          <mxGeometry relative="1" as="geometry">
            <Array as="points">
              <mxPoint x="1038" y="316" />
              <mxPoint x="1038" y="214" />
            </Array>
          </mxGeometry>
        </mxCell>
        <mxCell id="8DvpT-u5KKUCpt1AwwPD-16" value="&lt;font style=&quot;font-size: 18px;&quot;&gt;Order&lt;/font&gt;" style="whiteSpace=wrap;html=1;rounded=0;" vertex="1" parent="1">
          <mxGeometry x="855" y="286" width="120" height="60" as="geometry" />
        </mxCell>
        <mxCell id="8DvpT-u5KKUCpt1AwwPD-22" style="edgeStyle=orthogonalEdgeStyle;rounded=0;orthogonalLoop=1;jettySize=auto;html=1;exitX=1;exitY=0.5;exitDx=0;exitDy=0;entryX=-0.003;entryY=-0.112;entryDx=0;entryDy=0;entryPerimeter=0;" edge="1" parent="1" source="8DvpT-u5KKUCpt1AwwPD-16" target="q3lZP3yISvS3xZMHZqK9-16">
          <mxGeometry relative="1" as="geometry" />
        </mxCell>
        <mxCell id="8DvpT-u5KKUCpt1AwwPD-25" style="edgeStyle=orthogonalEdgeStyle;rounded=0;orthogonalLoop=1;jettySize=auto;html=1;entryX=0.5;entryY=0;entryDx=0;entryDy=0;" edge="1" parent="1" source="8DvpT-u5KKUCpt1AwwPD-23" target="q3lZP3yISvS3xZMHZqK9-19">
          <mxGeometry relative="1" as="geometry" />
        </mxCell>
        <mxCell id="8DvpT-u5KKUCpt1AwwPD-23" value="&lt;font style=&quot;font-size: 18px;&quot;&gt;Payment&lt;/font&gt;" style="whiteSpace=wrap;html=1;rounded=0;" vertex="1" parent="1">
          <mxGeometry x="586" y="545" width="120" height="60" as="geometry" />
        </mxCell>
        <mxCell id="8DvpT-u5KKUCpt1AwwPD-28" style="edgeStyle=orthogonalEdgeStyle;rounded=0;orthogonalLoop=1;jettySize=auto;html=1;entryX=0.495;entryY=0.999;entryDx=0;entryDy=0;entryPerimeter=0;" edge="1" parent="1" source="8DvpT-u5KKUCpt1AwwPD-6" target="8DvpT-u5KKUCpt1AwwPD-27">
          <mxGeometry relative="1" as="geometry" />
        </mxCell>
      </root>
    </mxGraphModel>
  </diagram>
</mxfile>
